<svg version="1.1"  id="Layer_1" xmlns="http://www.w3.org/2000/svg" xmlns:xlink="http://www.w3.org/1999/xlink" x="0px" y="0px" viewBox="0 0 266.8 81.6" xml:space="preserve" enable-background="new 0 0 266.8 81.6"><path d="M198.5 27.8c1.1-1.4 1.6-2.9 1.9-4.5 0.3-1.8 0.5-3.6 0.7-5.4 0.1-0.8 0.2-1.6 0.6-2.4 0.7-1.2 0.7-2.6 0.5-3.9 0-0.7-0.1-1.5-0.3-2.2 -0.3-1.8-0.1-3.6 0.7-5.3 0.1-0.3 0.2-0.7 0.3-1 0.4-1.5 1.3-2.4 2.8-2.4 1.9-0.1 3.7 0 5.6 0 1 0 1 0.1 1.2 1.2 0.3 2.1 0.6 4.1 0.8 6.2 0.9 7.8 1.8 15.7 2.7 23.5 0.1 0.7 0 1.4 0.8 2.1 0.3-0.6 0.6-1.1 0.8-1.6 0.5-2.4 0.9-4.8 1.4-7.2 0-0.4 0-0.8 0.1-1.1 0.6-1.5 0.5-3.2 0.5-4.8 0-1.2 0.1-2.3 0.6-3.4 0.8-2.1 0.8-4.3 0.9-6.4 0-2.2 0-4.3 0.1-6.5 0.1-1.8 0.7-2.1 2.4-2.1 1.1 0 2.3-0.3 3.4-0.4 0.7-0.1 1.5-0.1 2.2 0.1 1.4 0.3 1.9 1 1.8 2.6 -0.3 2.2-0.7 4.4-1.1 6.6 -0.7 3.8-1.8 7.5-2.2 11.3 -0.4 3.8-1.1 7.4-1.7 11.1 -0.9 6.5-1.8 13-2.8 19.5 -0.1 0.8-0.3 1.6-0.5 2.5 -0.1 0.8-0.5 1.1-1.2 1.3 -0.6 0.1-1.3 0.2-1.9 0.2 -1.9-0.1-3.7-0.2-5.6-0.4 -0.3 0-0.6-0.1-0.9-0.1 -1.7-0.4-2.4-1.3-2.5-3.2 0-0.7 0-1.4 0-2.1 0-1.8 0-3.6-0.7-5.3 -0.1-0.3-0.1-0.7 0-1.1 0.3-2.2 0-4.2-0.7-6.3 -0.3-0.8-0.4-1.8-0.6-2.6 -0.2-0.8-0.4-1.7-1.2-2.2 -0.9 0.8-1 1.8-1.1 2.9 -0.1 1.1-0.2 2.2-0.3 3.3 0 0.4 0 1-0.2 1.4 -0.8 1.9-0.7 3.9-0.9 5.9 -0.3 2.2-0.5 4.4-0.8 6.6 -0.1 0.7-0.3 1.5-0.7 2.1 -0.7 1.4-1.9 2-3.4 1.8 -1.9-0.3-3.7-0.7-5.5-1.6 -0.6-0.3-0.9-0.7-1-1.5 -0.1-1.5-0.3-2.9-0.4-4.4 -0.1-1.8-0.2-3.5-0.4-5.2 0-0.5-0.2-1-0.5-1.4 -0.7-1-1-2-1.1-3.2 -0.1-1.7-0.2-3.4-0.8-5 -0.3-1-0.2-2.2-0.3-3.3 -0.3-2.9-0.6-5.9-1.1-8.8 -0.9-4.7-1.9-9.4-2.9-14 -0.3-1.5-0.8-3-1.1-4.5 -0.1-0.4-0.2-0.8-0.1-1.2 0-0.6 0.3-1 1-1 1.2 0 2.5 0 3.7 0 1.3 0 2.7 0.1 4 0.1 0.9 0 1.4 0.4 1.6 1.3 0.2 1 0.4 2 0.6 3 0.3 2.4 0.6 4.8 0.9 7.1 0.5 4.4 1 8.8 1.5 13.2C197.7 26.3 197.7 27.1 198.5 27.8zM255.3 29.9c1.2-1.6 1.7-3.1 1.5-4.9 -0.1-1 0-2 0-3 0.1-2.8 0.2-5.5-0.1-8.3 -0.1-0.6 0-1.3 0-1.9 0-0.4 0.1-0.7 0-1.1 -0.1-2.3-0.3-4.5-0.4-6.8 -0.1-2.3 0.9-3.4 3.1-3.6 0.6 0 1.2-0.1 1.8-0.2 0 0 0.1 0 0.1 0 1.3 0.2 2.6 0.1 3.9 0.1 0.8 0 1.3 0.7 1.2 1.6 0 0.7-0.3 1.3-0.3 1.9 0 1.3 0 2.7 0 4 0 1.9 0.2 3.8 0 5.7 -0.3 2.9-0.2 5.8-0.1 8.7 0.1 3.7 0.2 7.3 0.3 11 0 1.4 0.3 2.7 0.4 4.1 0 3.4-0.1 6.8-0.1 10.1 0 1.7 0 3.4 0.2 5.1 0.1 2.2-0.7 3.2-2.8 3.2 -0.9 0-1.9 0.2-2.8 0.2 -1.2 0.1-2.4 0.1-3.6 0.1 -0.4 0-0.8-0.4-1.1-0.7 -1.6-1.5-2.4-3.4-2.8-5.5 -0.6-2.8-1.1-5.6-1.6-8.4 -0.3-1.5-0.9-3-1.7-4.3 -0.9-1.2-1.4-2.5-1.9-3.9 -0.2-0.8-0.6-1.5-0.9-2.3 -0.4-0.9-1-1.5-2-1.6 -0.6 0.5-0.9 1.2-0.8 2.1s0.1 1.7 0.1 2.5c0 5.7 0 11.4 0 17.1 0 1.3 0 2.5 0.1 3.8 0 0.3 0 0.6-0.1 1.1 -0.6 0-1-0.1-1.6-0.1 -1.4 0-2.8 0-4.1 0 -1.1 0-2.2-0.1-3.3-0.7 -0.7-0.3-1.1-0.8-1-1.7 0.1-2.1 0.1-4.3 0.2-6.4 0.1-3.1 0.3-6.1 0.4-9.2 0-0.4 0-0.8-0.1-1.3 -0.7-3.6-0.4-7.3-0.1-10.9 0.1-2.3 0.3-4.5 0-6.8 -0.1-0.5-0.1-1 0-1.5 0.4-2.5 0.2-4.9-0.1-7.3 -0.1-0.7-0.1-1.5-0.1-2.2 0-1-0.1-1.9-0.2-2.9 0-1-0.2-2-0.1-3 0.1-1.1 0.6-1.5 1.6-1.4 1.6 0.1 3.2 0.3 4.7 0.4 0.9 0.1 1.7 0.1 2.6 0 0.8-0.1 1.4 0.1 1.8 0.8 0.8 1.3 1.7 2.6 2.1 4.1 1 3 1.7 6.2 2.7 9.3 0.5 1.7 1.1 3.4 1.7 5.1 0.5 1.5 1 3.1 1.5 4.7 0.4 1.3 0.8 2.6 1.1 4C254.7 29 255 29.3 255.3 29.9zM31.8 35.1c0 2.3 0 4.6-0.1 6.9 0 0.6-0.3 1.1-0.5 1.7 -0.4 0.9-0.9 1.7-1.1 2.6 -0.5 1.5-0.8 2.9-1.9 4.1 -0.2 0.3-0.3 0.7-0.5 1.1 -0.3 0.7-0.6 1.3-1 1.9 -0.7 1.2-1.7 1.7-2.8 2 -1.6 0.4-3.2 0.7-4.8 0.9 -3.5 0.4-7 0.7-10.6 1 -0.3 0-0.7 0-1 0C6.3 57.1 5.1 57 4 56.8c-0.5-0.1-1-0.1-1.5-0.2C1 56.1 0.8 55.5 1 53.8c0.2-1.7 0.3-3.4 0.3-5.1 -0.1-3.2-0.3-6.3-0.4-9.4 0-0.5 0.1-1.1 0.2-1.6 0-0.4 0.2-0.9 0.1-1.2 -0.9-1.9-0.9-3.9-0.9-6 0-2.7-0.1-5.4-0.1-8.2 0-1.9 0-3.8 0-5.7 0-0.4 0-0.7 0-1.1 -0.4-2-0.2-4-0.1-6.1 0-1.4 0-2.7 0-4.1 0-1.2 0.4-1.9 1.5-1.7 2.9 0.6 5.7-0.2 8.6-0.3 1.3 0 2.7 0.1 4 0.1 0.9 0 1.8-0.1 2.7-0.1 1.1 0 2.1-0.1 3.2 0 2.9 0.2 5 1.8 6.7 4.3 2.5 3.9 3.8 8.2 4.5 12.8C31.9 24.6 32.1 31.4 31.8 35.1zM18.5 43.2c0.8-1.7 1.3-3.2 2.2-4.6 0.7-1.1 1-2.2 1.1-3.5 0-1.1 0.1-2.1 0.9-3 0.2-0.2 0.2-0.8 0-1.1 -0.5-0.9-0.3-1.6 0.3-2.3 0.2-0.3 0.5-0.6 0.6-0.9 0.1-0.2 0.1-0.7 0-0.8 -0.9-0.7-0.8-1.8-0.9-2.8 -0.3-1.7-1.1-3.3-1.7-4.9 -0.1-0.4-0.5-0.8-0.9-1 -1.1-0.4-2.3-1-3.5-0.9 -1.6 0.1-3.1 0-4.7-0.1 -1-0.1-1.4 0.1-1.5 1.3 -0.1 1.2-0.1 2.4 0 3.6 0.2 2.4 0.7 4.7 0.7 7 0 2.8-0.4 5.6-0.4 8.5 0 1.8 0.1 3.5 0.3 5.2 0.1 1.2 0.6 1.5 1.6 1.4C14.7 44.1 16.7 43.8 18.5 43.2zM72.2 30.7c0 1.3 0 2.6-0.1 3.9 -0.1 3.4-0.8 6.7-1.8 9.9 -0.2 0.8-0.6 1.6-0.8 2.4 -0.9 3-2.6 5.4-4.5 7.6 -0.7 0.8-1.4 1.6-2 2.6 -0.9 1.5-2.4 2.2-4 2.2 -1.3 0.1-2.6-0.1-3.8-0.3 -1.7-0.3-3.4-0.8-5-1.2 -1.8-0.4-3.3-1.4-4.6-2.6 -1.5-1.5-2.8-3-4.3-4.6 -0.2-0.2-0.4-0.5-0.5-0.8 -0.9-2.9-2.2-5.6-2.6-8.7 0-0.4-0.3-0.8-0.6-1.2 -0.7-1-0.9-2.2-0.5-3.4 0.1-0.3 0.2-0.7 0.2-1 0-1.2 0-2.4 0-3.6 0.1-1.5 0-3-0.3-4.5 -0.4-1.8-0.1-3.6 0.4-5.3 0.6-1.9 1.2-3.9 1.7-5.8 0.2-0.7 0.2-1.4 0.2-2.1 -0.1-1.4 0.2-2.5 1.1-3.5 0.6-0.6 0.9-1.5 1.4-2.2 0.2-0.3 0.3-0.7 0.6-0.9 2.4-1.8 4.6-3.8 7.3-5.1 2.4-1.2 4.9-1 7.5-0.5 1.8 0.3 3.4 1.3 5.3 1.1 0.3 0 0.7 0.2 0.9 0.4 0.8 0.8 1.6 1.5 2.3 2.4 0.8 0.9 1.6 1.7 2.2 2.6 0.7 1.1 1.4 2.2 1.9 3.4 1.2 3.1 1.9 6.4 2.1 9.8 0.2 3 0.2 6 0.4 9C72.3 30.7 72.2 30.7 72.2 30.7zM63.3 31.7c-0.3-2.7-0.6-5.4-1-8.1 0-0.4-0.2-0.7-0.3-1 -0.2-0.6-0.5-1.3-0.7-1.9 -0.2-0.8-0.5-1.4-1.2-1.9 -1.5-1.1-3.1-1.9-5-2.2 -3.7-0.6-6 0.9-7.1 4.6 -0.5 1.5-0.8 3.1-1.2 4.7 -0.3 1.1-0.9 2.1-1 3.2 -0.4 4.9 0.5 9.4 3.7 13 1.3 1.5 2.9 2.8 5.1 2.5 1-0.1 2-0.2 2.9-0.4 2.1-0.5 2.4-0.1 2.4-3 0-0.8 0.3-1.3 0.9-1.7 0.5-0.4 0.9-0.9 1.1-1.5C62.9 36 63.3 33.9 63.3 31.7zM164.6 1.8c0.7 0 1.4-0.1 2-0.1 0.8 0.1 1.6 0.2 2.4 0.5 1.3 0.5 2.5 1.2 3.7 1.8 0.3 0.2 0.6 0.5 0.9 0.8 1.2 1.5 2.5 2.8 3.4 4.5 0.9 1.5 1.6 3.2 2.2 5 1.5 4.4 2.2 9.1 2.5 13.8 0.1 1.8-0.1 3.7-0.2 5.5 -0.2 2.4-0.2 4.7-0.7 7 -0.8 3.5-1.6 6.9-3.2 10.1 -0.5 1-1.3 1.9-2.2 2.4 -1.3 0.8-2.7 1.6-4 2.3 -2.2 1.2-4.6 1.8-7 1 -0.4-0.1-0.9-0.2-1.4-0.1 -1.6 0.1-3-0.4-4.5-1.1 0 0-0.1-0.1-0.1-0.1 -3.3-1.5-5.5-4.2-7.1-7.6 -1-2.2-1.4-4.6-2.2-6.9 -0.4-1.2-0.8-2.4-1.1-3.7 -0.3-1.2-0.5-2.4 0-3.7 0.1-0.3 0.1-0.7 0-1 -0.9-2.6-0.7-5.4-0.6-8.1 0-1 0.1-1.9 0.2-2.9 0.2-3.1 1.4-5.9 2.8-8.6 0.9-1.8 2-3.6 3-5.4 0.5-0.8 1.1-1.5 1.9-1.8 1.5-0.7 2.8-1.5 4.1-2.6 0.9-0.7 2.1-0.8 3.1-1.1 0.6-0.1 1.3-0.1 1.9-0.1C164.6 1.7 164.6 1.7 164.6 1.8zM172.4 32.1c0-2.3-0.1-4.4-0.1-6.5 0-1.7-0.2-3.3-0.8-4.9 -1.8-4.7-4.7-5.8-8.4-5.3 -1.1 0.1-2.1 1-3.1 1.6 -0.2 0.1-0.4 0.6-0.5 0.9 -0.4 1.5-0.9 2.9-1.3 4.3 -0.9 2.6-1.4 5.4-1.4 8.2 0 3.9 1 7.6 3.2 10.7 0.6 0.9 1.3 1.4 2.3 1.7 1.6 0.4 3.2 0.4 4.7 0.1 0.9-0.1 1.7-0.7 2.3-1.5 1.2-1.6 2-3.5 2.6-5.4C172.2 34.8 172.2 33.3 172.4 32.1zM88.5 42.2c0.3 0.3 0.6 0.6 0.9 1 0.5 0.9 0.9 1.8 1.4 2.8 0.8 1.4 1.9 2.2 3.4 2.3 2.8 0.3 4.9-0.9 6.9-2.8 0.9-0.9 1.1-2 1.1-3.3 0.5-0.1 0.9-0.2 1.3-0.4 0.3-1.2-1-1.3-1-2.4 0.3-0.1 0.6-0.2 0.9-0.4 0.7-0.3 0.8-0.6 0.6-1.3 -0.4-1.1-1.2-1.7-2.2-2 -1-0.3-2.1-0.5-3.1-0.8 -0.5-0.1-0.9-0.3-1.4-0.4 -1.1-0.4-1.7-1.3-1.9-2.4 -0.3-1.5-0.3-2.9 0-4.4 0.1-0.7 0.5-1.1 1.1-1.4 1.6-0.7 3.1-0.5 4.7-0.1 0.9 0.2 1.8 0.5 2.8 0.7 1.2 0.3 2.4 0.5 3.6 0.2 0.4-0.1 0.9-0.1 1.3-0.1 1.4 0 2.1 0.5 2.3 2 0.2 1.7 0.3 3.4 0.3 5.1 0 2-0.4 4 0.2 6.1 0 0.2 0 0.6 0 0.8 -0.3 1.9-0.6 3.8-1 5.7 -0.2 1.3-0.2 2.5 0 3.7 0.2 1.2 0.4 2.4 0.6 3.5 0.2 1.6-0.2 2-1.7 2 -0.8 0-1.6 0.1-2.4 0.1 -0.4 0-1-0.1-1.3-0.4 -0.8-0.7-1.5-1.5-1.7-2.7 -0.2-1.3-0.9-1.4-1.8-0.6 -1.2 1-2.5 2.1-3.7 3 -1.6 1.1-3.4 1.6-5.3 1.1 -0.2-0.1-0.5-0.1-0.8-0.1 -2.6 0.1-4.5-1.3-6.4-2.8 -0.4-0.4-0.8-0.9-1-1.4 -0.3-0.8-0.8-1.3-1.3-1.8 -0.6-0.5-1.2-1-1.8-1.6 -0.7-0.6-1.1-1.2-1.4-2.1 -0.4-1.1-1.1-2.1-1.6-3.1 -1.1-2.2-1.7-4.5-1.7-7 0-2.4 0.1-4.8 0.1-7.2 0-4 0.9-7.9 1-11.9 0-1.6 0.8-2.9 1.4-4.3 1.4-2.9 3-5.7 5.1-8.1 0.7-0.8 1.4-1.5 2.4-1.8 0.8-0.3 1.4-0.9 2.1-1.4 1.1-0.9 2.3-1.2 3.7-1 2.4 0.3 4.9 0.5 7.3 0.8 0.4 0.1 0.9 0.2 1.2 0.5 2.3 2.2 4.7 4.3 6.2 7.3 0 0.1 0.1 0.1 0.1 0.2 0.9 2.3 2.2 4.3 2.8 6.8 0.3 1.3 0 1.8-1.3 1.5 -1.9-0.5-3.7-0.3-5.5-0.4 -1.6-0.1-2.6-1.1-2.6-2.8 0-1-0.1-1.9-1-2.5 -0.1-0.1-0.2-0.2-0.2-0.3 -0.9-1.8-2.6-2.4-4.3-2.9 -1.1-0.3-2.2 0.3-3.2 0.8 -0.5 0.3-0.9 1-1.1 1.6 -1.9 4.1-3.1 8.5-3.8 13 -0.7 4.7-0.7 9.3 0.3 13.9 0.1 0.8 0.4 1.6 0.6 2.4C88.6 41.3 88.5 41.8 88.5 42.2zM135.3 17.4c-0.1 3.1-0.4 6.9-0.5 10.6 0 2.1 0.2 4.3 0.2 6.4 0 3 0.1 6 0.1 9 0 1.7 0 3.3-0.1 5 0 2.4 0 4.7-0.1 7.1 0 1-0.2 1.3-1.1 1.4 -0.4 0.1-0.9 0.1-1.3 0.1 -1.3 0-2.7 0-4-0.1 -0.8-0.1-1.5-0.2-2.2-0.6 -1-0.4-1.4-1.4-1.3-2.5 0.4-2.8 0.4-5.6 0.2-8.4 0-1 0.1-2 0.2-3 0-0.1 0.1-0.3 0-0.4 -0.4-1.6-0.1-3.2 0-4.8 0.2-2.8 0.1-5.5 0.1-8.3 0-1.4-0.2-2.7-0.3-4.1 -0.2-2.8-0.5-5.5-0.5-8.3 0-1.1 0.4-2.3 0.7-3.4 0.3-1.1 0.3-1.3-0.5-2.1 -1.3-1.3-2.9-1.5-4.6-1.3 -1.1 0.1-2.1 0.2-3.2 0.2 -1.9 0-2.3-0.5-2.3-2.6 0-0.9-0.1-1.8-0.1-2.6 0-0.4 0-0.9 0-1.4 0.1-1.2 0.6-1.7 1.6-1.8 3.1-0.4 6.2-0.7 9.3-0.1 0.8 0.1 1.5 0.3 2.3 0.3 0.4 0 0.8 0 1.1-0.1 0.7-0.3 1.3-0.3 2 0.1 0.5 0.3 1.1 0.5 1.7 0.1 0.2-0.1 0.5-0.2 0.8-0.1 1.9 0.4 3.8 0 5.8-0.1 1.5 0 2.9-0.1 4.4 0 1.4 0.1 1.4 0.3 1.5 1.7 0.1 2.1 0.2 4.2 0.2 6.2 0 1.1-0.2 1.4-1.2 1.3 -0.9 0-1.8-0.2-2.7-0.4 -0.9-0.2-1.8-0.2-2.7 0.2 -0.6 0.2-1.3 0.2-1.9 0.2 -1.1 0-1.3 0.2-1.4 1.3C135.3 13.7 135.3 15.3 135.3 17.4zM140.2 73.8c0-2.9-0.1-5.9-0.1-8.9 0-1.5 0.1-1.6 1.4-1.7 2.2-0.1 4.5-0.1 6.7-0.2 1.6-0.1 2.8 0.7 4 1.6 0.7 0.5 0.8 1.4 0.9 2.2 0.1 1.3 0.1 2.4-0.8 3.5 -0.7 0.8-0.6 1.1 0 1.9 1.4 1.7 1.6 3.1 0.7 5.2 -0.3 0.6-0.5 1.3-0.9 1.8 -0.8 1.2-1.9 1.7-3.3 1.5 -0.5 0-1 0.1-1.5 0.1 -2 0-4 0-6-0.1 -1.1-0.1-1.4-0.5-1.4-1.7 0-1.8 0-3.5 0.1-5.3C140.1 73.8 140.2 73.8 140.2 73.8zM143.8 78.1c1.7 0.3 3.2 0.3 4.7-0.1 0.4-0.1 0.9-0.5 1.1-0.9 0.7-0.9 0.1-2.7-0.9-2.8 -1.3-0.1-2.7-0.1-4-0.1 -0.6 0-0.9 0.4-0.9 1.1C143.8 76.2 143.8 77.1 143.8 78.1zM144.2 68.9c0.2 0.1 0.5 0.1 0.8 0.1 1.1 0 2.3 0.2 3.4-0.3 0.8-0.3 1.2-0.9 1.2-1.5 0-0.7-0.5-1.1-1.3-1.3 -0.5-0.1-1.1-0.2-1.7-0.3 -2.8-0.3-3 0.3-2.6 3C144.1 68.7 144.1 68.8 144.2 68.9zM102.3 81.1c-1 0-1.9 0-2.8 0 -0.7 0-1-0.4-1-1.1 0-1.2-0.1-2.3-0.1-3.5 0-0.9-0.2-1.8-0.2-2.7 0-2.8 0.1-5.6 0.2-8.4 0-1.6 0-1.7 1.5-1.8 1.4-0.2 2.9-0.1 4.4-0.3 1.1-0.2 2.1 0.2 3.1 0.4 2.6 0.6 4 2.4 4.7 4.9 0.9 3.1 0.7 6.2-0.7 9.2 -0.5 1.2-1.3 2-2.5 2.4C106.6 81 104.5 81.4 102.3 81.1zM102.7 67c-0.1 0.3-0.1 0.3-0.1 0.4 0 3.1 0 6.2-0.1 9.3 0 0.6 0.3 0.9 0.8 0.9 0.7 0 1.5-0.1 2.2-0.2 1.9-0.1 3.2-1.6 3.2-3.6 0-1.4-0.1-2.9-0.3-4.3 -0.1-1-0.5-1.8-1.4-2.1C105.5 66.8 104.2 66.8 102.7 67zM86.3 70.1c0 1.8-0.1 3.5-0.1 5.3 0 1.7 0 3.3-0.1 5 0 0.8-0.4 1.1-1.2 1.2 -1.7 0.1-2.3-0.6-2.2-2.5 0-1.4 0-2.9 0-4.3 0-2.5 0.1-5 0.2-7.5 0-0.7 0-1.5 0-2.2 0-1 0.3-1.4 1.2-1.4 0.8 0 1.7 0.1 2.4 0.4 0.4 0.1 0.7 0.7 1 1.2 0.9 1.6 1.7 3.2 2.6 4.8 0.7 1.3 1.3 2.5 2.2 4 0-1.1 0.1-1.8 0.1-2.6 0-2.3 0.1-4.5 0.1-6.8 0-0.7 0.2-1.1 0.9-1.1 0.2 0 0.5 0 0.8 0 1.5-0.1 1.8 0.1 2 1.7 0.1 0.9 0.2 1.8 0.2 2.7 0 2.7-0.1 5.4-0.2 8 0 1.1-0.1 2.1-0.1 3.2 0 1.6-0.7 2.2-2.2 2.1 -1.2-0.1-2-0.7-2.6-1.9 -1.2-2.6-2.6-5.1-3.9-7.6 -0.3-0.6-0.5-1.2-0.8-1.8C86.5 70 86.4 70.1 86.3 70.1zM162.5 81c-2.8 0.4-6.4-2.8-6.7-6 -0.2-2-0.7-3.9-0.2-5.9 0.4-1.6 0.9-3.2 2-4.4 0.8-0.8 1.7-1.1 2.6-1.5 3.1-1.3 6.9-0.3 9.1 2.3 0.8 1 1.3 2.1 1.4 3.5 0.2 2 0.3 4 0 6.1 -0.4 1.8-1.2 3.3-2.8 4.3C166.2 80.5 164.5 81.1 162.5 81zM162.9 77.7c1.5 0.1 2.7-0.4 3.5-1.9 1.4-2.7 1.1-5.4 0-8.1 -0.6-1.5-3.5-2-4.8-1.1 -1.9 1.3-2.2 3.3-2.6 5.4 -0.2 1.6 0.3 3.1 1.1 4.4C160.8 77.5 161.8 77.8 162.9 77.7zM124.7 77.1c2.1 0 4 0.1 5.8 0 0.7 0 1.2 0 1.5 0.7 0.3 0.8 0.3 2.3-0.2 2.6 -0.3 0.2-0.8 0.4-1.2 0.4 -1.7 0.1-3.5 0.1-5.2 0.1 -1.7 0-3.3 0-4.9 0 -1.2 0-1.5-0.3-1.5-1.6 0-0.8 0.1-1.4 0.5-2.1 1-2.2 2.5-4 4.1-5.7 1.2-1.3 2-2.9 3.1-4.6 -0.9 0-1.6-0.1-2.3-0.1 -1.1 0-2.2 0-3.4 0 -1 0-1.2-0.2-1.4-1.4 0-0.3-0.1-0.7-0.1-1 0-0.8 0.3-1.1 1-1.1 2.5-0.1 5.1-0.1 7.6-0.2 1.1 0 2.2 0 3.3 0 0.5 0 0.8 0.2 0.9 0.7 0.2 1.1 0.4 2.2-0.4 3.3 -0.7 0.9-1.1 1.9-1.7 2.8 -0.6 0.9-1.3 1.7-2 2.5 -0.1 0.1-0.2 0.2-0.3 0.3C127 74.1 125.9 75.5 124.7 77.1zM199.8 68.4c-0.8 0.1-1.5 0.1-2.2 0.2 -0.6 0-0.9-0.3-1.2-0.9 -1.1-2-2.9-2.5-4.8-1.3 -1 0.7-1 2 0 2.7 0.5 0.3 1 0.4 1.6 0.6 1.2 0.3 2.4 0.6 3.7 0.9 1.8 0.4 3 1.4 3.5 3.2 0.5 2.1-0.2 3.8-1.7 5.2 -1.6 1.5-3.6 2-5.6 1.8 -0.8-0.1-1.5-0.3-2.3-0.5 -2.1-0.6-3.1-2.5-3.4-4.5 -0.1-0.8 0.1-1.1 0.9-1.2 0.4 0 0.8 0 1.1 0 0.7-0.1 1.1 0.2 1.3 1 0.2 1 0.9 1.5 1.9 1.6 0.4 0 0.9 0.2 1.3 0.3 0.9 0.1 1.6-0.1 2.2-0.9 0.9-1 0.7-2.3-0.6-2.7 -1.4-0.5-2.8-1-4.2-1.3 -3.7-1-4.2-3.3-3.5-6.7 0.4-1.8 1.7-2.5 3.1-3.1 1.8-0.7 3.7-0.6 5.5-0.2C198.5 63.2 200.1 65.7 199.8 68.4zM74.4 63.7c0.7 0 1.2 0.3 1.5 1.2 0.9 3 2 6 3 9 0.7 2.1 1.3 4.1 1.9 6.1 0.3 1 0.1 1.3-0.9 1.3 -2.5-0.1-3 0.6-3.7-2.6 -0.1-0.6-0.4-0.9-1-0.9 -1.2 0.1-2.4 0.1-3.6 0.1 -0.7 0-1.1 0.4-1.4 1 0 0.1-0.1 0.3-0.1 0.4 -0.8 2.4-0.9 2.2-3.2 2.1 -0.9 0-1.3-0.6-1.1-1.6 0.1-0.8 0.4-1.5 0.7-2.2 0.9-2.5 1.7-5.1 2.6-7.6 0.6-1.6 1.1-3.2 1.6-4.8 0.3-1.1 0.9-1.5 1.9-1.5C73.3 63.8 73.8 63.7 74.4 63.7zM73.8 69.1c-0.1 0-0.2 0-0.4 0.1 -0.5 1.5-0.9 3-1.4 4.6 0.9 0.2 1.9 0.6 2.9 0.2C74.5 72.4 74.2 70.7 73.8 69.1zM179.3 68.7c0.7-1.4 1.4-2.9 2-4.3 0.7-1.6 0.9-1.7 2.6-1.6 0.5 0 1 0 1.6 0.1 0.9 0.1 1.1 0.6 0.8 1.4 -1.1 2.2-1.9 4.6-3.3 6.6 -1.4 2.1-2.2 4.4-1.9 7 0 0.4 0 0.8 0 1.3 0 1.5-0.1 1.7-1.5 1.6 -0.3 0-0.7-0.1-1-0.1 -1.1-0.1-1.3-0.4-1.3-1.6 0-1.4 0-2.8 0-4.2 0-1-0.3-1.8-0.8-2.7 -1.1-2-2.2-4-3.3-6 -0.3-0.7-0.6-1.4-0.9-2.1 -0.2-0.7 0-1.1 0.7-1.2 0.8-0.1 1.6-0.1 2.3-0.1 0.9 0 1.2 0.7 1.6 1.5 0.7 1.5 1.4 3 2.1 4.5C179 68.7 179.2 68.7 179.3 68.7z"/></svg>