<?xml version="1.0" encoding="utf-8"?>
<!-- Generator: Adobe Illustrator 21.0.2, SVG Export Plug-In . SVG Version: 6.00 Build 0)  -->
<svg version="1.1" id="Layer_1" xmlns="http://www.w3.org/2000/svg" xmlns:xlink="http://www.w3.org/1999/xlink" x="0px" y="0px"
	  viewBox="0 0 333.8 218.4" style="enable-background:new 0 0 333.8 218.4;" xml:space="preserve"
	>
<style type="text/css">
	.st0{enable-background:new    ;}
	.st1{fill:#FFFFFF;}
</style>
<g class="st0">
	<path class="st1" d="M120.7,0h31.1v116.8c-1.3,21.9-16.4,39-45.2,51.2L0,218.4v-34.1L100,136c13.4-6,20.2-13.1,20.6-21.3V0z
		 M31.6,0v160.7L0,176.2V0H31.6z"/>
	<path class="st1" d="M182.2,0h104c18.4,0,32.6,8.6,42.5,25.9c3.4,6.7,5.2,13.6,5.2,20.7v124c0,21.6-11.5,37-34.5,46
		c-6.2,1.2-11.7,1.8-16.7,1.8H182.2V0z M213.6,32.4v154.5h73.6c8.3,0,13.2-5.7,14.7-17.2v-119c-1.1-11.8-7.4-17.9-18.8-18.3H213.6z"
		/>
</g>
</svg>
