<svg id="logo" xmlns="http://www.w3.org/2000/svg" viewBox="0 0 360.65 415.4">
  <defs>
    <style>
      .cls-1 {
        fill: none;
      }

      .cls-2 {
        fill: #347ace;
      }

      .cls-3 {
        fill: #fff;
      }
    </style>
  </defs>
  <title>vitodipinto.logo</title>
  <g>
    <rect class="cls-1" x="63.16" y="63.16" width="234.32" height="234.32" rx="43.92"/>
    <path class="cls-2" d="M329.29,329.29a106.91,106.91,0,0,1-75.7,31.36H107.06A107,107,0,0,1,.19,259.84H0v37.69a127.5,127.5,0,0,0,8.44,45.9,118.68,118.68,0,0,0,22.92,37.45,106.72,106.72,0,0,0,34,25.23,98,98,0,0,0,41.7,9.29H253.59a98,98,0,0,0,41.69-9.29,106.65,106.65,0,0,0,34-25.23,118.87,118.87,0,0,0,22.92-37.45,127.46,127.46,0,0,0,8.44-45.9V259.84h-.19a106.83,106.83,0,0,1-31.17,69.45Z"/>
    <path class="cls-3" d="M360.65,107.06A107,107,0,0,0,253.59,0H107.06A107,107,0,0,0,0,107.06V253.59c0,2.09.07,4.18.19,6.25A107,107,0,0,0,107.06,360.65H253.59A107,107,0,0,0,360.46,259.84c.12-2.07.19-4.16.19-6.25Zm-297.49,0a43.92,43.92,0,0,1,43.92-43.92H253.57a43.92,43.92,0,0,1,43.92,43.92V253.57a43.93,43.93,0,0,1-43.92,43.92H107.08a43.92,43.92,0,0,1-43.92-43.92Z"/>
  </g>
</svg>
