<?xml version="1.0" encoding="utf-8"?>
<!-- Generator: Adobe Illustrator 21.0.2, SVG Export Plug-In . SVG Version: 6.00 Build 0)  -->
<svg version="1.1" id="Layer_1" xmlns="http://www.w3.org/2000/svg" xmlns:xlink="http://www.w3.org/1999/xlink" x="0px" y="0px"
	 width="595.3px" height="841.9px" viewBox="0 0 595.3 841.9" style="enable-background:new 0 0 595.3 841.9;" xml:space="preserve"
	>
<style type="text/css">
	.st0{fill:none;stroke:#E6332A;stroke-miterlimit:10;}
	.st1{fill:#E6332A;}
	.st2{font-family:'Montserrat-SemiBold';}
	.st3{font-size:10px;}
	.st4{fill:none;}
	.st5{font-family:'Montserrat-Regular';}
	.st6{font-size:9px;}
	.st7{fill:#221C1D;}
	.st8{font-family:'Montserrat-Light';}
	.st9{fill:#756D6E;}
	.st10{font-size:8px;}
	.st11{font-family:'Montserrat-Hairline';}
	.st12{fill:#E7362D;}
	.st13{fill:#A5A6A6;}
	.st14{clip-path:url(#SVGID_2_);}
	.st15{font-size:32.6063px;}
	.st16{letter-spacing:1;}
	.st17{font-size:14.2612px;}
</style>
<g id="Line_and_Guideline">
	<line class="st0" x1="35.8" y1="143.5" x2="559.5" y2="143.7"/>
	<line class="st0" x1="244" y1="171" x2="243.8" y2="814.4"/>
</g>
<g id="Awards">
	<g>
		<text transform="matrix(1 0 0 1 264.4798 564.097)" class="st1 st2 st3">Interests </text>
	</g>
	<rect x="264.4" y="689.8" class="st4" width="288.7" height="8"/>
	<text transform="matrix(1 0 0 1 264.4798 696.4558)" class="st1 st5 st6">Additional Information </text>
	<g>
		<rect x="272.7" y="578.2" class="st4" width="269" height="31.3"/>
		<text transform="matrix(1 0 0 1 272.7836 584.8576)" class="st7 st8 st6">Creating and managing my personal blog which </text>
		<text transform="matrix(1 0 0 1 272.7836 595.6576)" class="st7 st8 st6">includes posts about the web-design projects I </text>
		<text transform="matrix(1 0 0 1 272.7836 606.4576)" class="st7 st8 st6">worked on. </text>
		<circle class="st1" cx="266.4" cy="586.3" r="2"/>
	</g>
	<g>
		<rect x="272.7" y="707.2" class="st4" width="269" height="31.3"/>
		<text transform="matrix(1 0 0 1 272.7836 713.9196)" class="st7 st8 st6">Languages: Fluent English, Italian and French with a </text>
		<text transform="matrix(1 0 0 1 272.7836 724.7196)" class="st7 st8 st6">good understanding of Spanish</text>
		<circle class="st1" cx="266.4" cy="715.5" r="2"/>
	</g>
	<g>
		<rect x="272.7" y="747.3" class="st4" width="100.2" height="9.4"/>
		<text transform="matrix(1 0 0 1 272.7836 754.0681)" class="st7 st8 st6">Nationality: Italian</text>
		<circle class="st1" cx="266.4" cy="752.2" r="2"/>
	</g>
	<g>
		<rect x="272.7" y="770" class="st4" width="269" height="22.5"/>
		<text transform="matrix(1 0 0 1 272.7836 776.7501)" class="st7 st8 st6">Driving Licence: clean European Driving Licence</text>
		<circle class="st1" cx="266.4" cy="774.8" r="2"/>
	</g>
	<g>
		<rect x="272.7" y="617.3" class="st4" width="269" height="20.8"/>
		<text transform="matrix(1 0 0 1 272.7836 624.042)" class="st7 st8 st6">Keep up with current design trends and best practi</text>
		<text transform="matrix(1 0 0 1 532.5835 624.042)" class="st7 st8 st6">-</text>
		<text transform="matrix(1 0 0 1 272.7836 634.842)" class="st7 st8 st6">ces  through continual CPD</text>
		<circle class="st1" cx="266.4" cy="625.5" r="2"/>
	</g>
	<g>
		<rect x="272.7" y="651.2" class="st4" width="269" height="20.8"/>
		<text transform="matrix(1 0 0 1 272.7836 657.9763)" class="st7 st8 st6">Developed a skateboarding vlog, gaining specialised </text>
		<text transform="matrix(1 0 0 1 272.7836 668.7763)" class="st7 st8 st6">knowledge on filming and video-editing</text>
		<circle class="st1" cx="266.4" cy="659.5" r="2"/>
	</g>
</g>
<g id="Work_Experience">
	<text transform="matrix(1 0 0 1 270.0002 325.9868)" class="st1 st2 st3">WORK EXPERIENCE</text>
	<rect x="270" y="341" class="st4" width="284" height="66.3"/>
	<text transform="matrix(1 0 0 1 270 347.6645)" class="st1 st2 st6">Booking.com - Customer Service Specialist,</text>
	<text transform="matrix(1 0 0 1 270 357.2645)" class="st9 st5 st10">April 2017 - Date and May 2015 - July 2016</text>
	<text transform="matrix(1 0 0 1 270 368.0645)" class="st7 st11 st6">Provided the highest possible levels of customer service, </text>
	<text transform="matrix(1 0 0 1 270 378.8645)" class="st7 st11 st6">whilst answering customer queries and assisting custo</text>
	<text transform="matrix(1 0 0 1 539.1 378.8645)" class="st7 st11 st6">-</text>
	<text transform="matrix(1 0 0 1 270 389.6645)" class="st7 st11 st6">mers with their reservations, utilising my Italian and </text>
	<text transform="matrix(1 0 0 1 270 400.4645)" class="st7 st11 st6">English language skills</text>
	<rect x="270" y="418" class="st4" width="284" height="54.7"/>
	<text transform="matrix(1 0 0 1 270 424.6613)" class="st1 st2 st6">Senior Customer Service Executive,</text>
	<text transform="matrix(1 0 0 1 270 434.2614)" class="st9 st5 st10">July 2016 - March 2017</text>
	<text transform="matrix(1 0 0 1 270 445.0613)" class="st7 st11 st6">Provided management support to the Customer Service </text>
	<text transform="matrix(1 0 0 1 270 455.8613)" class="st7 st11 st6">Agents, Accommodation Service Agents, Team Leaders </text>
	<text transform="matrix(1 0 0 1 270 466.6613)" class="st7 st11 st6">and Partner Services</text>
	<rect x="270" y="486.9" class="st4" width="284" height="59.3"/>
	<text transform="matrix(1 0 0 1 270 493.4879)" class="st1 st2 st6">Italian Armed Forces, Master Corporal</text>
	<text transform="matrix(1 0 0 1 270 503.0879)" class="st9 st5 st10">September 2000 - 2003</text>
	<text transform="matrix(1 0 0 1 270 513.8878)" class="st7 st11 st6">Provided strategic advice to my team while completing </text>
	<text transform="matrix(1 0 0 1 270 524.6879)" class="st7 st11 st6">challenging tasks, and assisted several superiors in </text>
	<text transform="matrix(1 0 0 1 270 535.4879)" class="st7 st11 st6">cross-department goals.</text>
</g>
<text transform="matrix(1 0 0 1 271.0002 182.3335)" class="st1 st2 st3">EDUCATION</text>
<rect x="271" y="197.3" class="st4" width="230.7" height="43.7"/>
<text transform="matrix(1 0 0 1 271 204.0112)" class="st1 st5 st6">The University of Greenwich, hondon, </text>
<text transform="matrix(1 0 0 1 271 213.6112)" class="st9 st5 st10">September 2017 to date</text>
<text transform="matrix(1 0 0 1 271 224.4112)" class="st7 st11 st6">MA Web Design &amp; Content Planning</text>
<text transform="matrix(1 0 0 1 271.0002 242.7612)" class="st1 st5 st6">The University of Greenwich, hondon, </text>
<text transform="matrix(1 0 0 1 271.0002 252.3612)" class="st9 st5 st10">September 2017 to date</text>
<text transform="matrix(1 0 0 1 271.0002 263.1612)" class="st7 st11 st6">MA Web Design &amp; Content Planning</text>
<rect x="271" y="246" class="st4" width="278.7" height="37"/>
<text transform="matrix(1 0 0 1 37.3284 711.0995)" class="st1 st2 st3">SOCIAL MEDIA</text>
<g>
	<g>
		<path class="st1" d="M43.6,726.9c-4.1,0-7.5,3.4-7.5,7.5s3.4,7.5,7.5,7.5s7.5-3.4,7.5-7.5C51.1,730.2,47.8,726.9,43.6,726.9
			L43.6,726.9z M41.7,738h-1.9v-6.6h1.9V738z M40.9,731c-0.5,0-0.9-0.4-0.9-0.9s0.4-0.9,0.9-0.9s0.9,0.4,0.9,0.9
			C41.7,730.6,41.4,731,40.9,731L40.9,731z M48.3,738h-1.9v-4.1c0-0.5-0.1-0.8-0.7-0.8c-1,0-1.2,0.8-1.2,0.8v4.1h-1.9v-6.6h1.9v0.6
			c0.3-0.2,0.9-0.6,1.9-0.6c0.6,0,1.9,0.4,1.9,2.6V738z"/>
	</g>
</g>
<g>
	<g>
		<path class="st1" d="M43.6,774.1c-4.1,0-7.5,3.4-7.5,7.5s3.4,7.5,7.5,7.5s7.5-3.4,7.5-7.5C51.1,777.5,47.8,774.1,43.6,774.1
			L43.6,774.1z M47,779.9c0,0.1,0,0.1,0,0.2c0,2.3-1.7,4.9-4.9,4.9c-1,0-1.9-0.3-2.6-0.8c0.1,0,0.3,0,0.4,0c0.8,0,1.6-0.3,2.1-0.7
			c-0.8,0-1.4-0.5-1.6-1.2c0.1,0,0.2,0,0.3,0c0.2,0,0.3,0,0.5-0.1c-0.8-0.2-1.4-0.9-1.4-1.7l0,0c0.2,0.1,0.5,0.2,0.8,0.2
			c-0.5-0.3-0.8-0.8-0.8-1.4c0-0.3,0.1-0.6,0.2-0.9c0.9,1,2.1,1.7,3.6,1.8c0-0.1,0-0.3,0-0.4c0-1,0.8-1.7,1.7-1.7
			c0.5,0,0.9,0.2,1.3,0.5c0.4-0.1,0.8-0.2,1.1-0.4c-0.1,0.4-0.4,0.7-0.8,1c0.3,0,0.7-0.1,1-0.3C47.6,779.3,47.3,779.6,47,779.9
			L47,779.9z"/>
	</g>
</g>
<text transform="matrix(1 0 0 1 58.8931 737.2964)" class="st11 st6">linkedin.com//in/vitodipinto</text>
<g>
	<text transform="matrix(1 0 0 1 58.8931 762.5229)" class="st11 st6">github.com/vdipinto</text>
</g>
<text transform="matrix(1 0 0 1 58.8929 784.5134)" class="st11 st6">twitter.com/VitoDipinto</text>
<g>
	<path class="st12" d="M49.2,756.2c-0.6-1.1-1.5-1.9-2.5-2.5c-1.1-0.6-2.2-0.9-3.5-0.9s-2.4,0.3-3.5,0.9s-1.9,1.5-2.5,2.5
		c-0.6,1.1-0.9,2.2-0.9,3.5c0,1.5,0.4,2.9,1.3,4.1c0.9,1.2,2,2.1,3.4,2.5c0.2,0,0.3,0,0.4-0.1c0.1-0.1,0.1-0.2,0.1-0.3
		c0,0,0-0.2,0-0.5c0-0.3,0-0.6,0-0.8h-0.2c-0.1,0-0.3,0-0.5,0s-0.4,0-0.6-0.1c-0.2,0-0.4-0.1-0.6-0.3c-0.2-0.1-0.3-0.3-0.4-0.6
		l-0.1-0.2c-0.1-0.1-0.2-0.3-0.3-0.5c-0.1-0.2-0.3-0.3-0.4-0.3h-0.1l-0.1-0.1l-0.1-0.1v-0.1c0,0,0.1,0,0.3,0h0.2
		c0.1,0,0.3,0.1,0.5,0.2s0.3,0.3,0.4,0.5c0.1,0.2,0.3,0.4,0.5,0.6c0.2,0.1,0.4,0.2,0.6,0.2c0.2,0,0.4,0,0.5,0s0.3-0.1,0.4-0.1
		c0.1-0.4,0.2-0.7,0.4-0.9c-0.3,0-0.7-0.1-0.9-0.2c-0.3-0.1-0.6-0.2-0.9-0.4c-0.3-0.2-0.5-0.4-0.7-0.6s-0.4-0.6-0.5-1
		s-0.2-0.8-0.2-1.4c0-0.7,0.2-1.4,0.7-1.9c-0.2-0.6-0.2-1.2,0.1-1.9c0.2-0.1,0.4,0,0.8,0.1c0.3,0.1,0.6,0.3,0.8,0.4s0.3,0.2,0.4,0.2
		c0.6-0.2,1.1-0.2,1.7-0.2c0.6,0,1.2,0.1,1.7,0.2l0.3-0.2c0.2-0.1,0.5-0.3,0.8-0.4c0.3-0.1,0.6-0.2,0.7-0.1c0.3,0.7,0.3,1.3,0.1,1.9
		c0.5,0.5,0.7,1.1,0.7,1.9c0,0.5-0.1,1-0.2,1.4c-0.1,0.4-0.3,0.7-0.5,1c-0.2,0.2-0.4,0.4-0.7,0.6c-0.3,0.2-0.6,0.3-0.9,0.4
		c-0.3,0.1-0.6,0.1-0.9,0.2c0.3,0.3,0.5,0.7,0.5,1.3v1.9c0,0.1,0,0.2,0.1,0.3s0.2,0.1,0.4,0.1c1.4-0.5,2.6-1.3,3.4-2.5
		c0.9-1.2,1.3-2.6,1.3-4.1C50.1,758.4,49.8,757.3,49.2,756.2z"/>
</g>
<g id="Passions">
	<text transform="matrix(1 0 0 1 35.3203 598.6143)" class="st1 st2 st3">PASSIONS</text>
	<g>
		<g>
			<path class="st1" d="M46,650.5c-2,0-3.7,1.6-3.7,3.7c0,2,1.6,3.7,3.7,3.7c2,0,3.7-1.6,3.7-3.7C49.7,652.2,48,650.5,46,650.5
				L46,650.5z"/>
			<path class="st1" d="M53.7,649h-2.6l-1.2-3.1h-7.8l-1.2,3.1h-0.4v-1.5h-1.8v1.5h-0.4c-0.8,0-1.5,0.7-1.5,1.5v9
				c0,0.8,0.7,1.5,1.5,1.5h15.4c0.8,0,1.5-0.7,1.5-1.5v-9C55.2,649.7,54.5,649,53.7,649L53.7,649z M39.9,649h-0.6v-0.9h0.6V649z
				 M46,659.7c-3,0-5.5-2.5-5.5-5.5s2.5-5.5,5.5-5.5s5.5,2.5,5.5,5.5S49,659.7,46,659.7L46,659.7z M52.7,652.7
				c-0.7,0-1.2-0.6-1.2-1.2c0-0.7,0.6-1.2,1.2-1.2c0.7,0,1.2,0.6,1.2,1.2C53.9,652.1,53.4,652.7,52.7,652.7L52.7,652.7z"/>
		</g>
	</g>
	<text transform="matrix(1 0 0 1 56.7785 627.3225)" class="st11 st6">Travel</text>
	<text transform="matrix(1 0 0 1 174.7785 627.8225)" class="st11 st6">Drawing</text>
	<text transform="matrix(1 0 0 1 58.2785 655.8225)" class="st11 st6">Photograph</text>
	<g>
		<g>
			<path class="st1" d="M154.8,653.9v6.1c0,0.4,0.3,0.7,0.7,0.7s0.7-0.3,0.7-0.7v-6.1c0-0.4-0.3-0.7-0.7-0.7
				S154.8,653.5,154.8,653.9L154.8,653.9z"/>
			<path class="st1" d="M152.7,660.7h1.4v-7.2v-0.1c0-3.1,2.5-5.7,5.6-5.7s5.6,2.5,5.6,5.7v0.1v7.2h1.4c1,0,1.8-0.8,1.8-1.9V655
				c0-0.9-0.6-1.6-1.3-1.8c-0.1-4.2-3.5-7.5-7.6-7.5s-7.5,3.4-7.6,7.5c-0.8,0.2-1.3,1-1.3,1.8v3.8
				C150.9,659.8,151.7,660.7,152.7,660.7L152.7,660.7z"/>
			<path class="st1" d="M163.5,653.9v6.1c0,0.4,0.3,0.7,0.7,0.7s0.7-0.3,0.7-0.7v-6.1c0-0.4-0.3-0.7-0.7-0.7
				S163.5,653.5,163.5,653.9L163.5,653.9z"/>
		</g>
	</g>
	<text transform="matrix(1 0 0 1 175.2785 656.2391)" class="st11 st6">Music</text>
	<g>
		<path class="st1" d="M50.4,619.1c0.6-0.8,1-1.7,1-2.3c0-0.2,0-0.4-0.1-0.5c0,0,0-0.1-0.1-0.1l-0.1-0.1c-0.1-0.1-0.3-0.1-0.5-0.1
			c-0.6,0-1.5,0.4-2.3,1c-0.7,0.5-1.3,1.2-2.3,2.2c-0.2,0.2-0.3,0.3-0.5,0.5l-1.8-0.5l0,0c0.1-0.1,0.1-0.2,0.1-0.3s0-0.2-0.1-0.3
			l-0.3-0.3c-0.1-0.1-0.2-0.1-0.3-0.1s-0.2,0-0.3,0.1l-0.5,0.5l-0.3-0.1c0.1-0.1,0.1-0.2,0.1-0.2c0-0.1,0-0.2-0.1-0.3l-0.3-0.3
			c-0.1-0.1-0.2-0.1-0.3-0.1s-0.2,0-0.3,0.1l-0.4,0.4l-1.8-0.5h-0.1c-0.1,0-0.2,0-0.3,0.1l-0.6,0.6c-0.1,0.1-0.1,0.2-0.1,0.3
			s0.1,0.3,0.2,0.3l3.8,2.1c0,0,0.1,0,0.1,0.1l1.1,1.1c-1,1.1-1.9,2.1-2.6,3c-0.1,0.1-0.1,0.2-0.2,0.2l-3-0.3c0,0,0,0-0.1,0
			s-0.3,0.1-0.4,0.2l-0.3,0.3c-0.1,0.1-0.1,0.2-0.1,0.3s0.1,0.3,0.2,0.3l2.1,1c0,0,0.1,0,0.1,0.1l0.2,0.2c-0.1,0.2-0.1,0.3-0.1,0.4
			c0,0.2,0.1,0.3,0.1,0.4l0,0l0,0c0.1,0.1,0.2,0.1,0.4,0.1c0.1,0,0.2,0,0.4-0.1l0.2,0.2c0,0,0,0.1,0.1,0.1l1,2.1
			c0.1,0.1,0.2,0.2,0.3,0.2l0,0c0.1,0,0.2,0,0.3-0.1l0.3-0.3c0.1-0.1,0.1-0.2,0.1-0.4l0,0l-0.3-3c0.1-0.1,0.2-0.1,0.2-0.2
			c0.9-0.7,1.9-1.6,3-2.6l1.1,1.1l0.1,0.1l2.1,3.8c0.1,0.1,0.2,0.2,0.3,0.2s0.2,0,0.3-0.1l0.6-0.6c0.1-0.1,0.1-0.2,0.1-0.3v-0.1
			l-0.5-1.8l0.4-0.4c0.1-0.1,0.1-0.2,0.1-0.3s0-0.2-0.1-0.3l-0.3-0.3c-0.1-0.1-0.2-0.1-0.3-0.1s-0.2,0-0.2,0.1l-0.1-0.3l0.5-0.5
			c0.1-0.1,0.1-0.2,0.1-0.3s0-0.2-0.1-0.3l-0.3-0.3c-0.1-0.1-0.2-0.1-0.3-0.1s-0.2,0-0.3,0.1l0,0l-0.5-1.8c0.2-0.2,0.4-0.3,0.5-0.5
			C49.2,620.4,49.9,619.7,50.4,619.1L50.4,619.1z"/>
	</g>
	<path class="st12" d="M168.1,624v-1.2h-10.2v-4.3c0-0.3-0.3-0.6-0.6-0.6h-0.4v-1.4c0-0.3-0.3-0.6-0.6-0.6s-0.6,0.3-0.6,0.6v1.4
		h-0.4c-0.3,0-0.6,0.3-0.6,0.6v0.4h-0.2c-0.7,0-1.3,0.6-1.3,1.3v2.3c0,0.3,0.3,0.6,0.6,0.6s0.6-0.3,0.6-0.6v-2.3c0,0,0-0.1,0.1-0.1
		h0.2v3.6l-3,3.1c-0.4,0.4-0.5,1.1-0.3,1.6l-0.1,0.1c-0.6,0.6-0.6,1.5,0,2.1l3.4,3.8c0.1,0.1,0.3,0.2,0.4,0.2c0,0,0,0,0.1,0l0.5,1.6
		c0.1,0.2,0.3,0.4,0.6,0.4c0.1,0,0.1,0,0.2,0c0.2-0.1,0.3-0.2,0.4-0.4l1-2.9v-0.1l0,0V633l0,0h0.1c0.1,0,0.3,0,0.4-0.1l2.3-1.8
		c0.2-0.2,0.4-0.4,0.5-0.7l0.5-1.2l1.1-0.5h5.5v-1.2h-5.6c-0.1,0-0.2,0-0.3,0.1l-0.1,0.1l0.1-0.4l-1.1-0.4l-1.2,3.2
		c0,0.1-0.1,0.1-0.1,0.2l-1.8,1.4l0,0c-0.3-0.3-0.2-0.8,0.1-1.1l1-0.8c0.1-0.1,0.1-0.2,0.2-0.3l0.9-2.5l-1.1-0.4l-0.9,2.4l-0.4,0.3
		V624H168.1z M152.2,629.4l2.6,2.9v0.5l-2.6-2.9C152,629.8,152,629.6,152.2,629.4z M152.6,627.7l2.1-2.3v1.1l-1,1
		c-0.2,0.2-0.2,0.6,0,0.8l1.5,1.7c0.4,0.4,0.4,1,0.2,1.4l-2.9-3.3C152.5,628,152.5,627.8,152.6,627.7z M156.7,631.7v0.9h-0.5
		C156.4,632.4,156.6,632,156.7,631.7z M156.2,629.3l-0.3-0.3v-9.8h0.8v11C156.6,629.8,156.4,629.5,156.2,629.3z M156.5,633.8
		l-0.2,0.5l-0.2-0.5H156.5z"/>
</g>
<g id="Skills">
	<g>
		<text transform="matrix(1 0 0 1 37.2369 366.9868)" class="st1 st2 st3">SKILLS</text>
		<rect x="36.5" y="390.6" class="st13" width="180.1" height="8.7"/>
		<rect x="36.5" y="390.6" class="st1" width="78.8" height="8.7"/>
		<text transform="matrix(1 0 0 1 36.362 386.0284)" class="st11 st6">Adobe Photoshop</text>
		<rect x="36.7" y="423.1" class="st13" width="180.1" height="8.7"/>
		<rect x="36.7" y="423.8" class="st1" width="124.1" height="8"/>
		<text transform="matrix(1 0 0 1 36.3203 418.57)" class="st11 st6">Adobe Illustrator</text>
		<rect x="36.7" y="458.1" class="st13" width="180.1" height="8.7"/>
		<rect x="36.7" y="458.1" class="st1" width="90" height="8.7"/>
		<text transform="matrix(1 0 0 1 36.3203 453.57)" class="st11 st6">Sketch</text>
		<rect x="36.7" y="492.1" class="st13" width="180.1" height="8.7"/>
		<rect x="36.7" y="492.1" class="st1" width="149.8" height="8.7"/>
		<text transform="matrix(1 0 0 1 35.3203 487.57)" class="st11 st6">HTML &amp; CSS</text>
		<rect x="36.7" y="529.1" class="st13" width="180.1" height="8.7"/>
		<rect x="36.7" y="529.1" class="st1" width="91" height="8.7"/>
		<text transform="matrix(1 0 0 1 35.3203 524.57)" class="st11 st6">PHP &amp; JavaScript</text>
		<rect x="36.3" y="561.5" class="st13" width="180.1" height="8.7"/>
		<rect x="36.3" y="561.5" class="st1" width="96.9" height="8.7"/>
		<text transform="matrix(1 0 0 1 34.8907 556.8887)" class="st11 st6">WordPress Theme Development</text>
	</g>
</g>
<g id="Profile">
	<text transform="matrix(1 0 0 1 37.0002 179.3335)" class="st1 st2 st3">PROFILE</text>
	<rect x="37" y="194.3" class="st4" width="181.5" height="154"/>
	<text transform="matrix(1 0 0 1 37 201.0112)" class="st7 st11 st6">I recently completed my Masters </text>
	<text transform="matrix(1 0 0 1 37 211.8112)" class="st7 st11 st6">degree in Web Design &amp; Content </text>
	<text transform="matrix(1 0 0 1 37 222.6112)" class="st7 st11 st6">Planning, which provided me with a </text>
	<text transform="matrix(1 0 0 1 37 233.4112)" class="st7 st11 st6">strong understanding of all aspects </text>
	<text transform="matrix(1 0 0 1 37 244.2112)" class="st7 st11 st6">of website design including aesthe</text>
	<text transform="matrix(1 0 0 1 210.2 244.2112)" class="st7 st11 st6">-</text>
	<text transform="matrix(1 0 0 1 37 255.0112)" class="st7 st11 st6">tics, graphics and client-side coding. </text>
	<text transform="matrix(1 0 0 1 37 265.8112)" class="st7 st11 st6">During my Masters degree I created </text>
	<text transform="matrix(1 0 0 1 37 276.6112)" class="st7 st11 st6">three websites, and developed my </text>
	<text transform="matrix(1 0 0 1 37 287.4112)" class="st7 st11 st6">knowledge of CSS, HTML and JavaS</text>
	<text transform="matrix(1 0 0 1 212 287.4112)" class="st7 st11 st6">-</text>
	<text transform="matrix(1 0 0 1 37 298.2112)" class="st7 st11 st6">cript, PHP and MySQL. I am highly </text>
	<text transform="matrix(1 0 0 1 37 309.0112)" class="st7 st11 st6">customer focussed with excellent </text>
	<text transform="matrix(1 0 0 1 37 319.8112)" class="st7 st11 st6">communication skills which I have </text>
	<text transform="matrix(1 0 0 1 37 330.6112)" class="st7 st11 st6">utilised by working in customer </text>
	<text transform="matrix(1 0 0 1 37 341.4112)" class="st7 st11 st6">service roles alongside my studies.</text>
</g>
<g id="Header">
	<g>
		<g>
			<circle class="st0" cx="515.5" cy="80.5" r="43.5"/>
			<g>
				<g>
					<defs>
						<circle id="SVGID_1_" cx="515.7" cy="80.7" r="40.3"/>
					</defs>
					<clipPath id="SVGID_2_">
						<use xlink:href="#SVGID_1_"  style="overflow:visible;"/>
					</clipPath>
					<g class="st14">
						
							<image style="overflow:visible;enable-background:new    ;" width="2587" height="2586" xlink:href="109EF6E8E1636BF3.jpeg"  transform="matrix(3.436679e-02 0 0 3.436679e-02 471.0466 41.1317)">
						</image>
					</g>
				</g>
			</g>
		</g>
		<text transform="matrix(1 0 0 1 36.0811 77.5684)" class="st1 st2 st15 st16">Vito Dipinto</text>
		<text transform="matrix(1 0 0 1 35.5005 96.4219)" class="st7 st8 st17">Web Designer</text>
		<text transform="matrix(1 0 0 1 36.5 121.0217)" class="st1 st8 st10">(+44) 07460480320</text>
		<text transform="matrix(1 0 0 1 133.6711 121.0439)" class="st1 st8 st10">vitodipinto@outlook.com</text>
		<text transform="matrix(1 0 0 1 261 121)" class="st1 st8 st10">London, UK</text>
	</g>
</g>
</svg>
