<?xml version="1.0" encoding="utf-8"?>
<!-- Generator: Adobe Illustrator 21.0.2, SVG Export Plug-In . SVG Version: 6.00 Build 0)  -->
<svg version="1.1" id="Layer_1" xmlns="http://www.w3.org/2000/svg" xmlns:xlink="http://www.w3.org/1999/xlink" x="0px" y="0px"
	 width="569.6px" height="664.8px" viewBox="0 0 569.6 664.8" style="enable-background:new 0 0 569.6 664.8;" xml:space="preserve"
	>
<style type="text/css">
	.st0{fill:#FF6633;stroke:#3399CC;stroke-width:112;stroke-miterlimit:10;}
	.st1{fill:#FF6633;stroke:#FFFFFF;stroke-width:112;stroke-miterlimit:10;}
	.st2{fill:#FFFFFF;}
	.st3{fill:none;stroke:#FFFFFF;stroke-width:28;}
</style>
<path class="st0" d="M427.5,157.8H142.1c-45.5,0-82.8,37.3-82.8,82.8V526c0,45.5,37.3,82.8,82.8,82.8h285.4
	c45.5,0,82.8-37.3,82.8-82.8V240.6C510.3,195,473,157.8,427.5,157.8z"/>
<path class="st1" d="M430.8,513.6h-292c-45.5,0-82.8-37.3-82.8-82.8v-292C56,93.3,93.3,56,138.8,56h292c45.5,0,82.8,37.3,82.8,82.8
	v292C513.6,476.3,476.3,513.6,430.8,513.6z"/>
<g>
	<g>
		<path class="st2" d="M167.4,236.5l45.1,79.9h4.4l44-79.9h13.5l-50.3,91.1h-18.7L154,236.5H167.4z"/>
		<path class="st2" d="M302.9,236.5h62.8c28.1,0,35.1,1.5,41.9,8.7c6,6.4,7.9,15.3,7.9,36.7c0,20.2-2.9,31.7-9.7,38.1
			c-6.6,6.1-13.5,7.5-39.2,7.5h-63.8V236.5z M366.1,317c17.6,0,18.2,0,23.2-1.2c9.8-2.3,13.8-12.2,13.8-34.3
			c0-14.1-1.9-23.8-5.5-28.3c-3-3.6-7.2-5.2-15.6-5.7c-2.5-0.3-6.4-0.3-16.7-0.3H315V317H366.1z"/>
	</g>
	<g>
		<path class="st3" d="M167.4,236.5l45.1,79.9h4.4l44-79.9h13.5l-50.3,91.1h-18.7L154,236.5H167.4z"/>
		<path class="st3" d="M302.9,236.5h62.8c28.1,0,35.1,1.5,41.9,8.7c6,6.4,7.9,15.3,7.9,36.7c0,20.2-2.9,31.7-9.7,38.1
			c-6.6,6.1-13.5,7.5-39.2,7.5h-63.8V236.5z M366.1,317c17.6,0,18.2,0,23.2-1.2c9.8-2.3,13.8-12.2,13.8-34.3
			c0-14.1-1.9-23.8-5.5-28.3c-3-3.6-7.2-5.2-15.6-5.7c-2.5-0.3-6.4-0.3-16.7-0.3H315V317H366.1z"/>
	</g>
</g>
</svg>
