<?xml version="1.0" encoding="utf-8"?>
<!-- Generator: Adobe Illustrator 21.0.2, SVG Export Plug-In . SVG Version: 6.00 Build 0)  -->
<svg version="1.1" id="Layer_1" xmlns="http://www.w3.org/2000/svg" xmlns:xlink="http://www.w3.org/1999/xlink" x="0px" y="0px"
	 width="438px" height="81px" viewBox="0 0 438 81" style="enable-background:new 0 0 438 81;" xml:space="preserve">
<style type="text/css">
	.st0{fill:#3333CC;}
	.st1{fill:#FFCCCC;}
</style>
<path class="st0" d="M422,74.3H16c-6.6,0-12-5.4-12-12V18.7c0-6.6,5.4-12,12-12h406c6.6,0,12,5.4,12,12v43.6
	C434,68.9,428.6,74.3,422,74.3z"/>
<g>
	<path class="st1" d="M34.6,21.1h1.8l14.4,36.5l14.4-36.5h1.8L51.8,59.9H50L34.6,21.1z M52,51.5l-1,2.2L38.2,21.1h1.8L52,51.5z
		 M53.9,46.8L53,49.2L41.9,21.1h1.8L53.9,46.8z M55.6,42.2l-0.9,2.4l-9.2-23.4h1.8L55.6,42.2z M68.9,21.1h1.8L55.4,59.9h-1.8
		L68.9,21.1z M72.6,21.1h1.8L59,59.9h-1.8L72.6,21.1z M76.2,21.1H78L62.7,59.9h-1.8L76.2,21.1z"/>
	<path class="st1" d="M81.1,21.1h1.7v38.8h-1.7V21.1z M84.5,21.1h1.7v38.8h-1.7V21.1z M87.8,21.1h1.7v38.8h-1.7V21.1z M91.2,21.1
		h1.7v38.8h-1.7V21.1z"/>
	<path class="st1" d="M96.6,22.8v-1.7h25.3v1.7H96.6z M96.6,26.2v-1.7h25.3v1.7H96.6z M96.6,29.5v-1.7h25.3v1.7h-6.7v30.4h-1.7V29.5
		h-1.7v30.4h-1.7V29.5h-1.7v30.4h-1.7V29.5H105v30.4h-1.7V29.5H96.6z"/>
	<path class="st1" d="M126.5,48.7c-1.1-2.6-1.7-5.3-1.7-8.2c0-2.9,0.6-5.6,1.7-8.2s2.6-4.8,4.5-6.7s4.1-3.4,6.7-4.5
		c2.6-1.1,5.3-1.7,8.2-1.7c2.9,0,5.6,0.6,8.2,1.7c2.6,1.1,4.8,2.6,6.7,4.5c1.9,1.9,3.4,4.1,4.5,6.7c1.1,2.6,1.7,5.3,1.7,8.2
		c0,2.9-0.6,5.6-1.7,8.2c-1.1,2.6-2.6,4.8-4.5,6.7c-1.9,1.9-4.1,3.4-6.7,4.5c-2.6,1.1-5.3,1.7-8.2,1.7c-2.9,0-5.6-0.6-8.2-1.7
		c-2.6-1.1-4.8-2.6-6.7-4.5C129.1,53.5,127.6,51.3,126.5,48.7z M128.1,33c-1,2.4-1.5,4.9-1.5,7.5s0.5,5.1,1.5,7.5
		c1,2.4,2.4,4.5,4.1,6.2c1.7,1.7,3.8,3.1,6.2,4.1c2.4,1,4.9,1.5,7.5,1.5c2.6,0,5.1-0.5,7.5-1.5c2.4-1,4.5-2.4,6.2-4.1
		c1.7-1.7,3.1-3.8,4.1-6.2s1.5-4.9,1.5-7.5s-0.5-5.1-1.5-7.5s-2.4-4.5-4.1-6.2c-1.7-1.7-3.8-3.1-6.2-4.1c-2.4-1-4.9-1.5-7.5-1.5
		c-2.6,0-5.1,0.5-7.5,1.5c-2.4,1-4.5,2.4-6.2,4.1C130.5,28.5,129.1,30.6,128.1,33z M130.6,49.4c-1.6-2.7-2.4-5.7-2.4-8.9
		c0-3.2,0.8-6.2,2.4-8.9c1.6-2.7,3.7-4.9,6.5-6.5c2.7-1.6,5.7-2.4,8.9-2.4c3.2,0,6.2,0.8,8.9,2.4c2.7,1.6,4.9,3.7,6.5,6.5
		s2.4,5.7,2.4,8.9c0,3.2-0.8,6.2-2.4,8.9c-1.6,2.7-3.7,4.9-6.5,6.5s-5.7,2.4-8.9,2.4c-3.2,0-6.2-0.8-8.9-2.4S132.2,52.1,130.6,49.4z
		 M131.2,34.3c-0.8,2-1.3,4.1-1.3,6.2c0,2.2,0.4,4.2,1.3,6.2c0.8,2,2,3.7,3.4,5.1c1.4,1.4,3.1,2.6,5.1,3.4c2,0.8,4.1,1.3,6.2,1.3
		c2.2,0,4.2-0.4,6.2-1.3c2-0.8,3.7-2,5.1-3.4c1.4-1.4,2.6-3.1,3.4-5.1c0.8-2,1.3-4.1,1.3-6.2c0-2.2-0.4-4.2-1.3-6.2
		c-0.8-2-2-3.7-3.4-5.1c-1.4-1.4-3.1-2.6-5.1-3.4c-2-0.8-4.1-1.3-6.2-1.3c-2.2,0-4.2,0.4-6.2,1.3c-2,0.8-3.7,2-5.1,3.4
		C133.2,30.6,132,32.3,131.2,34.3z M133.5,47.7c-1.3-2.2-1.9-4.6-1.9-7.2c0-2.6,0.6-5,1.9-7.2c1.3-2.2,3-3.9,5.2-5.2
		c2.2-1.3,4.6-1.9,7.2-1.9c2.6,0,5,0.6,7.2,1.9c2.2,1.3,3.9,3,5.2,5.2c1.3,2.2,1.9,4.6,1.9,7.2c0,2.6-0.6,5-1.9,7.2
		c-1.3,2.2-3,3.9-5.2,5.2c-2.2,1.3-4.6,1.9-7.2,1.9c-2.6,0-5-0.6-7.2-1.9C136.5,51.6,134.8,49.9,133.5,47.7z M135,34.2
		c-1.1,1.9-1.7,4.1-1.7,6.3c0,2.3,0.6,4.4,1.7,6.3c1.1,1.9,2.7,3.5,4.6,4.6c1.9,1.1,4.1,1.7,6.3,1.7c2.3,0,4.4-0.6,6.3-1.7
		c1.9-1.1,3.5-2.7,4.6-4.6c1.1-1.9,1.7-4.1,1.7-6.3c0-2.3-0.6-4.4-1.7-6.3c-1.1-1.9-2.7-3.5-4.6-4.6c-1.9-1.1-4.1-1.7-6.3-1.7
		c-2.3,0-4.4,0.6-6.3,1.7C137.6,30.7,136.1,32.2,135,34.2z M135.8,44.8c-0.6-1.4-0.9-2.8-0.9-4.3c0-1.5,0.3-2.9,0.9-4.3
		c0.6-1.4,1.4-2.5,2.3-3.5c1-1,2.2-1.8,3.5-2.3c1.4-0.6,2.8-0.9,4.3-0.9c1.5,0,2.9,0.3,4.3,0.9c1.4,0.6,2.5,1.4,3.5,2.3
		c1,1,1.8,2.2,2.3,3.5c0.6,1.4,0.9,2.8,0.9,4.3c0,1.5-0.3,2.9-0.9,4.3c-0.6,1.4-1.4,2.5-2.3,3.5s-2.2,1.8-3.5,2.3
		c-1.4,0.6-2.8,0.9-4.3,0.9c-1.5,0-2.9-0.3-4.3-0.9c-1.4-0.6-2.5-1.4-3.5-2.3C137.2,47.3,136.4,46.1,135.8,44.8z M139.4,33.9
		c-1.8,1.8-2.7,4-2.7,6.6c0,2.6,0.9,4.7,2.7,6.6c1.8,1.8,4,2.7,6.6,2.7c2.6,0,4.7-0.9,6.6-2.7s2.7-4,2.7-6.6c0-2.6-0.9-4.7-2.7-6.6
		s-4-2.7-6.6-2.7C143.4,31.2,141.2,32.1,139.4,33.9z"/>
	<path class="st1" d="M197.3,59.9h-21.6V21.1h21.6c3,0,5.9,0.9,8.5,2.6c2.6,1.7,4.7,4.1,6.3,7.1c1.6,3,2.4,6.2,2.4,9.7
		c0,2.6-0.5,5.1-1.4,7.5c-0.9,2.4-2.2,4.5-3.7,6.2c-1.5,1.7-3.4,3.1-5.5,4.1C201.8,59.4,199.6,59.9,197.3,59.9z M177.4,58.2h19.9
		c2,0,4-0.5,5.9-1.4c1.9-0.9,3.6-2.2,4.9-3.8c1.4-1.6,2.5-3.5,3.3-5.7c0.8-2.2,1.3-4.5,1.3-6.9c0-2.4-0.4-4.7-1.3-6.9
		c-0.8-2.2-1.9-4.1-3.3-5.7c-1.4-1.6-3-2.8-4.9-3.8c-1.9-0.9-3.9-1.4-5.9-1.4h-19.9V58.2z M179.1,56.5V24.5h18.3
		c2.4,0,4.7,0.7,6.8,2.1c2.1,1.4,3.8,3.4,5,5.8c1.2,2.5,1.9,5.1,1.9,8c0,2.9-0.6,5.6-1.9,8c-1.2,2.5-2.9,4.4-5,5.8
		c-2.1,1.4-4.4,2.1-6.8,2.1H179.1z M180.8,54.8h16.6c2.1,0,4.1-0.6,6-1.9c1.8-1.3,3.3-3,4.4-5.2c1.1-2.2,1.6-4.6,1.6-7.2
		c0-2.6-0.5-5-1.6-7.2c-1.1-2.2-2.6-4-4.4-5.2c-1.8-1.3-3.8-1.9-6-1.9h-16.6V54.8z M182.5,53.2V27.8h14.9c1.8,0,3.5,0.6,5.1,1.7
		c1.6,1.1,2.8,2.7,3.8,4.6c0.9,1.9,1.4,4.1,1.4,6.4c0,2.3-0.5,4.4-1.4,6.3c-0.9,2-2.2,3.5-3.8,4.6c-1.6,1.1-3.3,1.7-5.1,1.7H182.5z
		 M184.1,51.5h13.2c2.3,0,4.3-1.1,6-3.2c1.7-2.1,2.5-4.7,2.5-7.7c0-2-0.4-3.8-1.2-5.5c-0.8-1.7-1.8-3-3.1-4c-1.3-1-2.7-1.5-4.3-1.5
		h-13.2V51.5z M185.8,49.8V31.2h11.5c1.9,0,3.5,0.9,4.8,2.7c1.3,1.8,2,4,2,6.5c0,2.6-0.7,4.7-2,6.6c-1.3,1.8-2.9,2.7-4.8,2.7H185.8z
		 M187.5,48.1h9.8c1.4,0,2.6-0.7,3.6-2.2c1-1.5,1.5-3.3,1.5-5.4c0-2.1-0.5-3.9-1.5-5.4c-1-1.5-2.2-2.2-3.6-2.2h-9.8V48.1z"/>
	<path class="st1" d="M218.2,21.1h1.7v38.8h-1.7V21.1z M221.6,21.1h1.7v38.8h-1.7V21.1z M225,21.1h1.7v38.8H225V21.1z M228.4,21.1
		h1.7v38.8h-1.7V21.1z"/>
	<path class="st1" d="M247.6,48.3h9.8c1.7,0,3.3-0.3,4.8-1s2.9-1.6,4-2.7c1.1-1.1,2-2.5,2.7-4.1c0.7-1.6,1-3.3,1-5.2
		c0-2.2-0.6-4.2-1.7-6.2c-1.1-1.9-2.7-3.5-4.6-4.6c-1.9-1.1-4-1.7-6.2-1.7h-21.2v37.1h-1.7V21.1h22.9c2.5,0,4.8,0.7,7,2
		c2.2,1.3,3.9,3,5.2,5.2c1.3,2.2,1.9,4.5,1.9,7c0,2.2-0.4,4.3-1.1,6.1c-0.8,1.9-1.8,3.4-3.1,4.7c-1.3,1.2-2.8,2.2-4.5,2.9
		c-1.7,0.7-3.5,1-5.4,1h-9.8V48.3z M247.6,44.9h9.8c1.6,0,3.1-0.4,4.5-1.2c1.4-0.8,2.5-1.9,3.3-3.4c0.9-1.5,1.3-3.2,1.3-5
		c0-2.4-0.9-4.5-2.8-6.4c-1.8-1.8-4-2.8-6.4-2.8h-17.9v33.7h-1.7V24.5h19.5c1.9,0,3.7,0.5,5.3,1.5c1.7,1,3,2.3,4,4
		c1,1.7,1.5,3.4,1.5,5.3c0,2.1-0.5,4.1-1.5,5.8c-1,1.7-2.3,3.1-4,4.1c-1.6,1-3.4,1.4-5.4,1.4h-9.8V44.9z M247.6,41.5h9.8
		c1.6,0,3-0.5,4.1-1.6c1.1-1.1,1.7-2.6,1.7-4.6c0-1.5-0.6-2.8-1.8-4c-1.2-1.2-2.5-1.8-4-1.8h-14.5v30.4h-1.7V27.8h16.2
		c2,0,3.7,0.8,5.2,2.3c1.5,1.5,2.2,3.2,2.2,5.2c0,2.4-0.7,4.3-2.2,5.8c-1.5,1.4-3.2,2.2-5.3,2.2h-9.8V41.5z M246.3,59.9h-1.7V31.2
		h12.8c1.1,0,2.1,0.4,2.9,1.2c0.8,0.8,1.2,1.8,1.2,2.9c0,3-1.4,4.5-4.1,4.5h-9.8v-1.7h9.8c0.7,0,1.3-0.2,1.8-0.6
		c0.4-0.4,0.6-1.2,0.6-2.2c0-0.7-0.2-1.3-0.7-1.7c-0.5-0.5-1-0.7-1.7-0.7h-11.1V59.9z"/>
	<path class="st1" d="M275.3,21.1h1.7v38.8h-1.7V21.1z M278.7,21.1h1.7v38.8h-1.7V21.1z M282.1,21.1h1.7v38.8h-1.7V21.1z
		 M285.4,21.1h1.7v38.8h-1.7V21.1z"/>
	<path class="st1" d="M293.3,23.8v36.1h-1.7V21.1h2l23.8,38.8h-1.9L293.3,23.8z M294.9,28.6l1.7,2.9v28.4h-1.7V28.6z M295.5,21.1h2
		l23.9,38.8h-2L295.5,21.1z M298.3,34.2l1.7,2.8v22.8h-1.7V34.2z M299.5,21.1h2l23.8,38.8h-2L299.5,21.1z M301.7,39.8l1.7,2.8v17.3
		h-1.7V39.8z M303.5,21.1h2l22.1,36.1V21.1h1.7v38.8h-2L303.5,21.1z M319.1,41.2l-1.7-2.8V21.1h1.7V41.2z M322.5,46.8l-1.7-2.8V21.1
		h1.7V46.8z M325.9,52.4l-1.7-2.9V21.1h1.7V52.4z"/>
	<path class="st1" d="M333,22.8v-1.7h25.3v1.7H333z M333,26.2v-1.7h25.3v1.7H333z M333,29.5v-1.7h25.3v1.7h-6.7v30.4h-1.7V29.5h-1.7
		v30.4h-1.7V29.5h-1.7v30.4h-1.7V29.5h-1.7v30.4h-1.7V29.5H333z"/>
	<path class="st1" d="M362.9,48.7c-1.1-2.6-1.7-5.3-1.7-8.2c0-2.9,0.6-5.6,1.7-8.2c1.1-2.6,2.6-4.8,4.5-6.7s4.1-3.4,6.7-4.5
		c2.6-1.1,5.3-1.7,8.2-1.7c2.9,0,5.6,0.6,8.2,1.7c2.6,1.1,4.8,2.6,6.7,4.5s3.4,4.1,4.5,6.7c1.1,2.6,1.7,5.3,1.7,8.2
		c0,2.9-0.6,5.6-1.7,8.2c-1.1,2.6-2.6,4.8-4.5,6.7c-1.9,1.9-4.1,3.4-6.7,4.5c-2.6,1.1-5.3,1.7-8.2,1.7c-2.9,0-5.6-0.6-8.2-1.7
		c-2.6-1.1-4.8-2.6-6.7-4.5C365.5,53.5,364,51.3,362.9,48.7z M364.4,33c-1,2.4-1.5,4.9-1.5,7.5s0.5,5.1,1.5,7.5
		c1,2.4,2.4,4.5,4.1,6.2c1.7,1.7,3.8,3.1,6.2,4.1c2.4,1,4.9,1.5,7.5,1.5c2.6,0,5.1-0.5,7.5-1.5c2.4-1,4.5-2.4,6.2-4.1
		c1.7-1.7,3.1-3.8,4.1-6.2c1-2.4,1.5-4.9,1.5-7.5s-0.5-5.1-1.5-7.5c-1-2.4-2.4-4.5-4.1-6.2c-1.7-1.7-3.8-3.1-6.2-4.1
		c-2.4-1-4.9-1.5-7.5-1.5c-2.6,0-5.1,0.5-7.5,1.5c-2.4,1-4.5,2.4-6.2,4.1C366.8,28.5,365.5,30.6,364.4,33z M367,49.4
		c-1.6-2.7-2.4-5.7-2.4-8.9c0-3.2,0.8-6.2,2.4-8.9s3.7-4.9,6.5-6.5c2.7-1.6,5.7-2.4,8.9-2.4c3.2,0,6.2,0.8,8.9,2.4
		c2.7,1.6,4.9,3.7,6.5,6.5s2.4,5.7,2.4,8.9c0,3.2-0.8,6.2-2.4,8.9c-1.6,2.7-3.7,4.9-6.5,6.5c-2.7,1.6-5.7,2.4-8.9,2.4
		c-3.2,0-6.2-0.8-8.9-2.4C370.7,54.2,368.5,52.1,367,49.4z M367.5,34.3c-0.8,2-1.3,4.1-1.3,6.2c0,2.2,0.4,4.2,1.3,6.2
		c0.8,2,2,3.7,3.4,5.1c1.4,1.4,3.1,2.6,5.1,3.4c2,0.8,4.1,1.3,6.2,1.3c2.2,0,4.2-0.4,6.2-1.3c2-0.8,3.7-2,5.1-3.4
		c1.4-1.4,2.6-3.1,3.4-5.1c0.8-2,1.3-4.1,1.3-6.2c0-2.2-0.4-4.2-1.3-6.2c-0.8-2-2-3.7-3.4-5.1c-1.4-1.4-3.1-2.6-5.1-3.4
		c-2-0.8-4.1-1.3-6.2-1.3c-2.2,0-4.2,0.4-6.2,1.3c-2,0.8-3.7,2-5.1,3.4C369.5,30.6,368.4,32.3,367.5,34.3z M369.9,47.7
		c-1.3-2.2-1.9-4.6-1.9-7.2c0-2.6,0.6-5,1.9-7.2c1.3-2.2,3-3.9,5.2-5.2c2.2-1.3,4.6-1.9,7.2-1.9c2.6,0,5,0.6,7.2,1.9
		c2.2,1.3,3.9,3,5.2,5.2c1.3,2.2,1.9,4.6,1.9,7.2c0,2.6-0.6,5-1.9,7.2c-1.3,2.2-3,3.9-5.2,5.2c-2.2,1.3-4.6,1.9-7.2,1.9
		c-2.6,0-5-0.6-7.2-1.9C372.9,51.6,371.2,49.9,369.9,47.7z M371.3,34.2c-1.1,1.9-1.7,4.1-1.7,6.3c0,2.3,0.6,4.4,1.7,6.3
		c1.1,1.9,2.7,3.5,4.6,4.6s4.1,1.7,6.4,1.7c2.3,0,4.4-0.6,6.3-1.7c1.9-1.1,3.5-2.7,4.6-4.6c1.1-1.9,1.7-4.1,1.7-6.3
		c0-2.3-0.6-4.4-1.7-6.3c-1.1-1.9-2.7-3.5-4.6-4.6c-1.9-1.1-4.1-1.7-6.3-1.7c-2.3,0-4.4,0.6-6.4,1.7C374,30.7,372.5,32.2,371.3,34.2
		z M372.2,44.8c-0.6-1.4-0.9-2.8-0.9-4.3c0-1.5,0.3-2.9,0.9-4.3c0.6-1.4,1.4-2.5,2.3-3.5c1-1,2.2-1.8,3.5-2.3
		c1.4-0.6,2.8-0.9,4.3-0.9c1.5,0,2.9,0.3,4.3,0.9c1.4,0.6,2.5,1.4,3.5,2.3c1,1,1.8,2.2,2.3,3.5c0.6,1.4,0.9,2.8,0.9,4.3
		c0,1.5-0.3,2.9-0.9,4.3c-0.6,1.4-1.4,2.5-2.3,3.5c-1,1-2.2,1.8-3.5,2.3c-1.4,0.6-2.8,0.9-4.3,0.9c-1.5,0-2.9-0.3-4.3-0.9
		c-1.4-0.6-2.5-1.4-3.5-2.3C373.6,47.3,372.8,46.1,372.2,44.8z M375.7,33.9c-1.8,1.8-2.7,4-2.7,6.6c0,2.6,0.9,4.7,2.7,6.6
		c1.8,1.8,4,2.7,6.6,2.7c2.6,0,4.7-0.9,6.6-2.7c1.8-1.8,2.7-4,2.7-6.6c0-2.6-0.9-4.7-2.7-6.6c-1.8-1.8-4-2.7-6.6-2.7
		C379.7,31.2,377.5,32.1,375.7,33.9z"/>
</g>
</svg>
