<svg id="Layer_1" data-name="Layer 1" xmlns="http://www.w3.org/2000/svg" viewBox="0 0 429.87 496">
  <defs>
    <style>
      .cls-1, .cls-2 {
        fill: #f63;
        stroke-miterlimit: 10;
        stroke-width: 112px;
      }

      .cls-1 {
        stroke: #39c;
      }

      .cls-2, .cls-4 {
        stroke: #fff;
      }

      .cls-3 {
        fill: #fff;
      }

      .cls-4 {
        fill: none;
        stroke-width: 28px;
      }
    </style>
  </defs>
  <title>vito.dipinto</title>
  <path class="cls-1" d="M314.06,126.71H115.81a57.73,57.73,0,0,0-57.52,57.52V382.48A57.72,57.72,0,0,0,115.81,440H314.06a57.72,57.72,0,0,0,57.52-57.52V184.23A57.68,57.68,0,0,0,314.06,126.71Z"/>
  <path class="cls-2" d="M316.35,373.87H113.52A57.72,57.72,0,0,1,56,316.35V113.52A57.72,57.72,0,0,1,113.52,56H316.35a57.72,57.72,0,0,1,57.52,57.52V316.35A57.72,57.72,0,0,1,316.35,373.87Z"/>
  <g>
    <g>
      <path class="cls-3" d="M133.38,181.38l31.33,55.51h3.06l30.56-55.51h9.38l-34.94,63.29h-13l-35.7-63.29Z"/>
      <path class="cls-3" d="M227.51,181.38h43.62c19.52,0,24.38,1.05,29.11,6.05,4.17,4.44,5.49,10.62,5.49,25.49,0,14-2,22-6.74,26.47-4.59,4.23-9.38,5.21-27.23,5.21H227.44V181.38Zm43.9,55.92c12.23,0,12.64,0,16.12-.83,6.8-1.6,9.58-8.48,9.58-23.83,0-9.79-1.32-16.53-3.82-19.66-2.08-2.5-5-3.61-10.84-4-1.73-.2-4.44-.2-11.6-.2H235.91V237.3Z"/>
    </g>
    <g>
      <path class="cls-4" d="M133.38,181.38l31.33,55.51h3.06l30.56-55.51h9.38l-34.94,63.29h-13l-35.7-63.29Z"/>
      <path class="cls-4" d="M227.51,181.38h43.62c19.52,0,24.38,1.05,29.11,6.05,4.17,4.44,5.49,10.62,5.49,25.49,0,14-2,22-6.74,26.47-4.59,4.23-9.38,5.21-27.23,5.21H227.44V181.38Zm43.9,55.92c12.23,0,12.64,0,16.12-.83,6.8-1.6,9.58-8.48,9.58-23.83,0-9.79-1.32-16.53-3.82-19.66-2.08-2.5-5-3.61-10.84-4-1.73-.2-4.44-.2-11.6-.2H235.91V237.3Z"/>
    </g>
  </g>
</svg>
