<?xml version="1.0" encoding="utf-8"?>
<!-- Generator: Adobe Illustrator 21.0.2, SVG Export Plug-In . SVG Version: 6.00 Build 0)  -->
<svg version="1.1" id="Layer_1" xmlns="http://www.w3.org/2000/svg" xmlns:xlink="http://www.w3.org/1999/xlink" x="0px" y="0px"
	 width="412px" height="412px" viewBox="0 0 412 412" style="enable-background:new 0 0 412 412;" xml:space="preserve">
<style type="text/css">
	.st0{fill:#E95D2A;}
</style>
<g>
	<path class="st0" d="M337,412H75c-41.4,0-75-33.7-75-75V75C0,33.7,33.7,0,75,0h262c41.4,0,75,33.7,75,75v262
		C412,378.3,378.3,412,337,412z M75,32c-23.7,0-43,19.3-43,43v262c0,23.7,19.3,43,43,43h262c23.7,0,43-19.3,43-43V75
		c0-23.7-19.3-43-43-43H75z"/>
</g>
<path class="st0" d="M313.5,67.5h-214C82.2,67.5,68,81.7,68,99v214c0,17.3,14.2,31.5,31.5,31.5h214c17.3,0,31.5-14.2,31.5-31.5V99
	C345,81.7,330.8,67.5,313.5,67.5z M279,81.5c5.8,0,10.5,4.7,10.5,10.5c0,5.8-4.7,10.5-10.5,10.5c-5.8,0-10.5-4.7-10.5-10.5
	C268.5,86.2,273.2,81.5,279,81.5z M249.5,81.5c5.8,0,10.5,4.7,10.5,10.5c0,5.8-4.7,10.5-10.5,10.5c-5.8,0-10.5-4.7-10.5-10.5
	C239,86.2,243.7,81.5,249.5,81.5z M319,318.5H94v-192h225V318.5z M308.5,102.5c-5.8,0-10.5-4.7-10.5-10.5c0-5.8,4.7-10.5,10.5-10.5
	c5.8,0,10.5,4.7,10.5,10.5C319,97.8,314.3,102.5,308.5,102.5z"/>
<g>
	<g>
		<path class="st0" d="M169.5,263.5l-56.8-31v-17.1l56.8-30.8v20.1l-39.6,19l39.6,19.7C169.5,243.4,169.5,263.5,169.5,263.5z"/>
		<path class="st0" d="M179.2,274.3l37.7-100.6h11.9L191,274.3H179.2z"/>
		<path class="st0" d="M241.5,263.5v-20l39.6-19.6l-39.6-19.4v-19.9l56.8,30.8v17L241.5,263.5z"/>
	</g>
</g>
</svg>
