<?xml version="1.0" encoding="utf-8"?>
<!-- Generator: Adobe Illustrator 21.0.2, SVG Export Plug-In . SVG Version: 6.00 Build 0)  -->
<svg version="1.1" id="Layer_1" xmlns="http://www.w3.org/2000/svg" xmlns:xlink="http://www.w3.org/1999/xlink" x="0px" y="0px"
	 width="412px" height="412px" viewBox="0 0 412 412" style="enable-background:new 0 0 412 412;" xml:space="preserve">
<style type="text/css">
	.st0{fill:none;stroke:#FFFFFF;stroke-width:22;stroke-miterlimit:10;}
	.st1{fill:#FFFFFF;}
	.st2{fill:none;stroke:#FFFFFF;stroke-width:32;stroke-miterlimit:10;}
</style>
<g>
	<line class="st0" x1="179.3" y1="122" x2="356.3" y2="122"/>
	<g>
		<polygon class="st1" points="55.7,127.7 67.3,114.6 88.2,133.2 129.8,86.2 142.9,97.8 89.8,157.9 		"/>
		<polygon class="st1" points="137.2,98.1 89.4,152.2 82.3,145.9 61.3,127.4 67.6,120.3 88.6,138.8 130.1,91.8 		"/>
	</g>
	<line class="st0" x1="179.3" y1="223" x2="335.3" y2="223"/>
	<g>
		<polygon class="st1" points="55.7,228.7 67.3,215.6 88.2,234.1 129.8,187.1 142.9,198.7 89.8,258.8 		"/>
		<polygon class="st1" points="137.2,199.1 89.4,253.2 82.3,246.9 61.3,228.4 67.6,221.2 88.6,239.8 130.1,192.8 		"/>
	</g>
	<line class="st0" x1="179.3" y1="310" x2="319.3" y2="310"/>
	<g>
		<polygon class="st1" points="55.7,315.7 67.3,302.6 88.2,321.1 129.8,274.1 142.9,285.7 89.8,345.8 		"/>
		<polygon class="st1" points="137.2,286.1 89.4,340.2 82.3,333.9 61.3,315.4 67.6,308.2 88.6,326.8 130.1,279.8 		"/>
	</g>
	<path class="st2" d="M337,396H75c-32.5,0-59-26.6-59-59V75c0-32.5,26.6-59,59-59h262c32.5,0,59,26.6,59,59v262
		C396,369.4,369.4,396,337,396z"/>
</g>
</svg>
